<?xml version="1.0" encoding="UTF-8"?>
<svg id="Layer_2" data-name="Layer 2" xmlns="http://www.w3.org/2000/svg" viewBox="0 0 130.95 175.4">
  <defs>
    <style>
      .cls-1 {
        fill: #090580;
      }
    </style>
  </defs>
  <g id="Layer_1-2" data-name="Layer 1">
    <path class="cls-1" d="m96.26,35.43l10.45-18.98c1.99-3.61.5-8.16-3.25-9.87C94.31,2.4,84.15.05,73.45,0,33.58-.19.16,32.94,0,72.81c-.1,25.78,13.14,48.47,33.21,61.56,1.83,1.19,2.41,3.61,1.35,5.53l-10.45,19c-1.98,3.6-.5,8.14,3.23,9.86,9.16,4.21,19.34,6.58,30.07,6.64,39.95.23,73.4-32.92,73.53-72.86.08-25.8-13.21-48.5-33.33-61.58-1.78-1.16-2.39-3.66-1.36-5.53Zm-38.7,106.99c-4.67-.03-9.15-.86-13.31-2.36-2.44-.88-3.53-3.72-2.28-5.99l10.35-18.81c1.75-3.18.82-7.16-2.15-9.23-10.39-7.25-17.19-19.3-17.19-32.93,0-22.21,18.17-40.26,40.38-40.12,4.63.03,9.07.84,13.2,2.31,2.45.87,3.54,3.72,2.29,5.99l-10.33,18.78c-1.75,3.18-.82,7.18,2.17,9.25,10.45,7.24,17.29,19.32,17.29,33,0,22.24-18.18,40.28-40.41,40.12Z"/>
  </g>
</svg>