<?xml version="1.0" encoding="UTF-8"?>
<svg id="Layer_2" data-name="Layer 2" xmlns="http://www.w3.org/2000/svg" viewBox="0 0 503.25 174.56">
  <defs>
    <style>
      .cls-1 {
        fill: #ef1c2b;
      }
    </style>
  </defs>
  <g id="Layer_1-2" data-name="Layer 1">
    <g>
      <path class="cls-1" d="m95.8,35.26l10.4-18.89c1.98-3.59.5-8.12-3.23-9.82C93.86,2.39,83.75.05,73.1,0,33.42-.18.16,32.78,0,72.46c-.1,25.65,13.08,48.24,33.06,61.27,1.82,1.19,2.4,3.59,1.35,5.5l-10.4,18.9c-1.97,3.59-.5,8.11,3.22,9.82,9.12,4.19,19.25,6.55,29.92,6.61,39.76.23,73.05-32.76,73.18-72.52.08-25.68-13.14-48.27-33.17-61.28-1.78-1.15-2.37-3.64-1.35-5.5Zm-38.52,106.48c-4.65-.03-9.1-.86-13.24-2.35-2.43-.87-3.51-3.7-2.27-5.96l10.3-18.72c1.74-3.16.82-7.12-2.14-9.19-10.34-7.22-17.11-19.2-17.11-32.77,0-22.11,18.08-40.07,40.19-39.93,4.6.03,9.02.84,13.13,2.3,2.44.87,3.53,3.7,2.28,5.96l-10.28,18.69c-1.74,3.17-.81,7.14,2.16,9.2,10.4,7.21,17.21,19.23,17.21,32.84,0,22.13-18.09,40.09-40.22,39.93Z"/>
      <g>
        <g>
          <path class="cls-1" d="m211.36,84.41c-2.1,0-4.14-.33-6.14-.98-2-.66-3.64-1.59-4.93-2.8l4.49-4.74c.68.63,1.62,1.12,2.81,1.46,1.19.34,2.44.51,3.77.51,1.21,0,2.34-.16,3.39-.48.89-.3,1.6-.7,2.13-1.22.53-.52.8-1.28.8-2.27,0-.59-.32-1.09-.97-1.49-.65-.4-1.48-.75-2.5-1.05-1.02-.3-2.09-.57-3.22-.83-1.48-.33-2.91-.71-4.31-1.13-1.39-.42-2.65-.97-3.76-1.66-1.11-.69-2-1.58-2.67-2.69-.67-1.11-1-2.53-1-4.28,0-2.69.87-4.94,2.62-6.75,1.34-1.38,2.94-2.36,4.82-2.95,1.77-.55,3.59-.83,5.44-.83,2.09,0,4.14.33,6.14.99,2,.66,3.65,1.59,4.95,2.79l-4.51,4.74c-.68-.63-1.61-1.12-2.8-1.46-1.18-.34-2.44-.51-3.78-.51-1.2,0-2.32.17-3.37.5-.9.28-1.61.68-2.14,1.2-.53.52-.79,1.28-.79,2.27,0,.59.32,1.09.97,1.49.65.41,1.48.76,2.49,1.05,1.01.3,2.08.57,3.21.83,1.49.33,2.93.71,4.32,1.14,1.39.42,2.64.98,3.76,1.66,1.12.68,2.01,1.58,2.67,2.69.66,1.11.99,2.54.99,4.27,0,2.69-.87,4.94-2.62,6.77-1.34,1.36-2.94,2.34-4.82,2.93-1.76.55-3.57.83-5.44.83Z"/>
          <path class="cls-1" d="m266.53,84.49h-6.59v-34.38h6.59v34.38Z"/>
          <path class="cls-1" d="m327.72,84.51h-21.69v-34.4h6.55v27.82h15.14v6.58Z"/>
          <path class="cls-1" d="m378.72,50.11h7.15l.04.02-14.65,34.36h-6.03l-13.84-34.38h7.13l9.81,24.29,10.39-24.29Z"/>
          <path class="cls-1" d="m444.71,84.49h-7.15l-4.2-9.81h-12.03l-3.97,9.81h-7.13l13.84-34.38h6.03l14.65,34.36-.04.02Zm-14.35-16.81l-3.2-7.48-3.01,7.48h6.21Z"/>
          <path class="cls-1" d="m503.25,84.49h-5.3l-13.11-21.42v21.42h-6.55v-34.38h5.78l12.63,21.42v-21.42h6.56v34.38Z"/>
        </g>
        <g>
          <path class="cls-1" d="m205.52,124.45c-1.27,0-2.5-.34-3.67-1.03-1.09-.64-1.96-1.56-2.59-2.74l3.28-1.69c.29.54.69.97,1.2,1.27.56.33,1.15.49,1.78.49.88,0,1.67-.33,2.39-1,.63-.62.94-1.4.94-2.33v-8.64h-5.93v-3.69h9.62v12.33c0,1.01-.18,1.94-.55,2.77s-.86,1.56-1.47,2.17c-.67.67-1.45,1.19-2.32,1.55-.87.36-1.77.54-2.69.54Z"/>
          <path class="cls-1" d="m240.98,124.45c-2,0-3.65-.67-4.97-2-.67-.68-1.18-1.46-1.53-2.34-.35-.88-.53-1.78-.53-2.7v-12.33h3.69v12.33c0,.45.08.88.25,1.3s.41.79.73,1.12c.6.61,1.39.91,2.36.91s1.77-.3,2.37-.91c.32-.32.56-.69.73-1.11.17-.42.25-.86.25-1.31v-12.33h3.69v12.33c0,.92-.18,1.82-.53,2.7-.35.88-.86,1.66-1.54,2.34-1.31,1.33-2.97,2-4.97,2Zm-.46-19.66l-1.91-.55,6.27-3.68.83,1.64-5.19,2.59Z"/>
          <path class="cls-1" d="m283.79,124.44h-2.98l-7.38-12.06v12.06h-3.69v-19.36h3.26l7.11,12.06v-12.06h3.69v19.36Z"/>
          <path class="cls-1" d="m309.72,124.44h-3.71v-19.36h3.71v19.36Z"/>
          <path class="cls-1" d="m339.36,124.39c-1.32,0-2.57-.25-3.73-.75-1.16-.5-2.19-1.19-3.07-2.07-.88-.88-1.57-1.9-2.07-3.07-.5-1.17-.75-2.41-.75-3.73s.25-2.58.75-3.74c.5-1.17,1.19-2.19,2.06-3.06.88-.88,1.91-1.57,3.07-2.07,1.17-.5,2.41-.75,3.73-.75s2.58.25,3.75.75c1.16.5,2.19,1.19,3.07,2.07.88.88,1.57,1.9,2.07,3.07.5,1.17.75,2.41.75,3.74s-.25,2.57-.75,3.73c-.5,1.17-1.19,2.19-2.07,3.07-.88.88-1.9,1.57-3.07,2.07-1.17.5-2.41.75-3.75.75Zm0-3.69c.83,0,1.6-.15,2.31-.46s1.35-.73,1.89-1.28c.54-.54.97-1.17,1.28-1.89.31-.72.46-1.48.46-2.3s-.15-1.6-.46-2.31-.73-1.35-1.28-1.89c-.54-.54-1.17-.97-1.89-1.28-.72-.31-1.49-.46-2.31-.46s-1.58.15-2.3.46c-.72.31-1.35.73-1.89,1.28-.54.54-.97,1.17-1.28,1.89-.31.72-.46,1.49-.46,2.31s.15,1.58.46,2.3c.31.72.73,1.35,1.28,1.89.54.54,1.17.97,1.89,1.28.72.31,1.48.46,2.3.46Z"/>
          <path class="cls-1" d="m381.32,124.44l-4.95-6.61h-3.4v6.61h-3.7v-19.36h5.16c.82-.01,1.56,0,2.24,0,1.61.05,2.93.42,3.97,1.12,1.04.69,1.8,1.57,2.28,2.63.37.82.55,1.67.55,2.55,0,.98-.21,1.89-.62,2.75-.54,1.14-1.4,2.06-2.61,2.76l5.67,7.56h-4.59Zm-5.02-10.3c.86,0,1.56-.15,2.1-.46.93-.53,1.39-1.29,1.39-2.29,0-.93-.42-1.64-1.26-2.15-.49-.3-1.13-.45-1.91-.47-.78-.01-1.58-.02-2.4-.02h-1.25v5.38h3.33Z"/>
        </g>
      </g>
    </g>
  </g>
</svg>